<?xml version="1.0" encoding="utf-8"?>
<!-- Generator: Adobe Illustrator 19.2.0, SVG Export Plug-In . SVG Version: 6.00 Build 0)  -->
<svg version="1.1" id="Layer_1" xmlns="http://www.w3.org/2000/svg" xmlns:xlink="http://www.w3.org/1999/xlink" x="0px" y="0px"
	 viewBox="0 0 960 960" style="enable-background:new 0 0 960 960;" xml:space="preserve">
<style type="text/css">
	.st0{fill:none;stroke:#FFFFFF;stroke-width:14.3794;stroke-miterlimit:10;}
	.st1{fill:#6DBCDB;}
	.st2{fill:#FC4349;}
</style>
<g id="Layer_1_1_">
	<g>
		<g>
			<line class="st0" x1="310.8" y1="165.8" x2="649.2" y2="165.8"/>
			<line class="st0" x1="336.8" y1="231.5" x2="623.2" y2="231.5"/>
			<line class="st0" x1="336.8" y1="382.1" x2="623.2" y2="382.1"/>
			<line class="st0" x1="316.5" y1="447.8" x2="643.5" y2="447.8"/>
			<line class="st0" x1="316.5" y1="513.5" x2="643.5" y2="513.5"/>
			<line class="st0" x1="336.8" y1="579.1" x2="623.2" y2="579.1"/>
			<line class="st0" x1="336.8" y1="728.3" x2="623.2" y2="728.3"/>
			<line class="st0" x1="310.8" y1="794" x2="649.2" y2="794"/>
		</g>
		<path class="st1" d="M480,289.5C403.8,250,320.2,209.3,320.2,133h-36.5c0,86,81,131.3,163.1,173.5c4-2,7.9-4.1,11.9-6.1
			C465.9,296.8,473,293.1,480,289.5z"/>
		<path class="st2" d="M676.3,827h-36.5c0-83.4-96.4-124.2-181-167.4c-86.1-44-175-89.5-175-179.6s89-135.6,175-179.6
			c84.6-43.2,181-84,181-167.4h36.5c0,90.1-89,135.6-175,179.6c-84.6,43.2-181,84-181,167.4s96.4,124.2,181,167.4
			C587.3,691.4,676.3,736.9,676.3,827z"/>
		<path class="st1" d="M676.3,480c0-86-81-131.3-163.1-173.5c-4,2-7.9,4.1-11.9,6.1c-7.1,3.6-14.2,7.3-21.2,10.9
			C556.2,363,639.8,403.7,639.8,480S556.3,597,480,636.5c7,3.6,14.1,7.3,21.2,10.9c4,2,7.9,4.1,11.9,6.1
			C595.3,611.3,676.3,566,676.3,480z"/>
		<path class="st1" d="M446.9,653.5C364.7,695.7,283.7,741,283.7,827h36.5c0-76.3,83.5-117,159.8-156.5c-7-3.6-14.1-7.3-21.2-10.9
			C454.8,657.6,450.8,655.5,446.9,653.5z"/>
		<path class="st1" d="M480,323.5c7-3.6,14.1-7.3,21.2-10.9c4-2,7.9-4.1,11.9-6.1c-4-2-7.9-4.1-11.9-6.1
			c-7.1-3.6-14.2-7.3-21.2-10.9c-7,3.6-14.1,7.3-21.2,10.9c-4,2-7.9,4.1-11.9,6.1c4,2,7.9,4.1,11.9,6.1
			C465.9,316.2,473,319.9,480,323.5z"/>
	</g>
</g>
</svg>
